<svg width="50" height="42" viewBox="0 0 50 42" fill="none" xmlns="http://www.w3.org/2000/svg">
<path d="M26.4075 0.172485C28.6725 1.62499 30.0425 3.51999 30.8475 5.46499H32.6825V35.0125H38.7975V5.46499H50V0.172485H26.4075Z" fill="#F5F4F1"/>
<path d="M0 0.172485C0 0.172485 8.325 0.172485 15.21 0.172485C22.095 0.172485 29.24 2.17748 29.24 11.17C29.24 20.805 22.745 22.68 19.7625 22.68C19.7625 22.68 21.8125 25.43 23.395 30.5925C24.9775 35.755 27.9425 42 33.955 42C33.955 42 30.3325 42 26.8625 42C23.3925 42 20.48 38.725 18.255 33.715C16.03 28.705 12.95 18.26 5.78 18.26C5.78 18.26 14.335 18.26 16.1475 18.26C17.96 18.26 22.97 17.1425 22.97 11.7075C22.97 6.27249 18.0375 5.27249 15.3775 5.27249C12.7175 5.27249 4.0475 5.27249 4.0475 5.27249L0 0.172485Z" fill="#F5F4F1"/>
</svg>
